<?xml version="1.0" encoding="utf-8"?>
<!-- Generator: Adobe Illustrator 18.1.1, SVG Export Plug-In . SVG Version: 6.00 Build 0)  -->
<svg version="1.1" xmlns="http://www.w3.org/2000/svg" xmlns:xlink="http://www.w3.org/1999/xlink" x="0px" y="0px"
	 viewBox="0 0 960 560" enable-background="new 0 0 960 560" xml:space="preserve">
<g id="Layer_2">
	<rect x="-56.3" y="-37.7" opacity="0.59" width="1072.3" height="614.6"/>
</g>
<g id="Layer_1">
	<line opacity="0.85" fill="none" stroke="#999999" stroke-miterlimit="10" x1="14.5" y1="-63" x2="14.5" y2="578"/>
	<line opacity="0.85" fill="none" stroke="#999999" stroke-miterlimit="10" x1="29.5" y1="-63" x2="29.5" y2="578"/>
	<line opacity="0.85" fill="none" stroke="#999999" stroke-miterlimit="10" x1="44.5" y1="-63" x2="44.5" y2="578"/>
	<line opacity="0.85" fill="none" stroke="#999999" stroke-miterlimit="10" x1="59.5" y1="-63" x2="59.5" y2="578"/>
	<line opacity="0.85" fill="none" stroke="#999999" stroke-miterlimit="10" x1="74.5" y1="-63" x2="74.5" y2="578"/>
	<line opacity="0.85" fill="none" stroke="#999999" stroke-miterlimit="10" x1="89.5" y1="-63" x2="89.5" y2="578"/>
	<line opacity="0.85" fill="none" stroke="#999999" stroke-miterlimit="10" x1="104.5" y1="-63" x2="104.5" y2="578"/>
	<line opacity="0.85" fill="none" stroke="#999999" stroke-miterlimit="10" x1="119.5" y1="-63" x2="119.5" y2="578"/>
	<line opacity="0.85" fill="none" stroke="#999999" stroke-miterlimit="10" x1="134.5" y1="-63" x2="134.5" y2="578"/>
	<line opacity="0.85" fill="none" stroke="#999999" stroke-miterlimit="10" x1="149.5" y1="-63" x2="149.5" y2="578"/>
	<line opacity="0.85" fill="none" stroke="#999999" stroke-miterlimit="10" x1="164.5" y1="-63" x2="164.5" y2="578"/>
	<line opacity="0.85" fill="none" stroke="#999999" stroke-miterlimit="10" x1="179.5" y1="-63" x2="179.5" y2="578"/>
	<line opacity="0.85" fill="none" stroke="#999999" stroke-miterlimit="10" x1="194.5" y1="-63" x2="194.5" y2="578"/>
	<line opacity="0.85" fill="none" stroke="#999999" stroke-miterlimit="10" x1="209.5" y1="-63" x2="209.5" y2="578"/>
	<line opacity="0.85" fill="none" stroke="#999999" stroke-miterlimit="10" x1="224.5" y1="-63" x2="224.5" y2="578"/>
	<line opacity="0.85" fill="none" stroke="#999999" stroke-miterlimit="10" x1="239.5" y1="-63" x2="239.5" y2="578"/>
	<line opacity="0.85" fill="none" stroke="#999999" stroke-miterlimit="10" x1="254.5" y1="-63" x2="254.5" y2="578"/>
	<line opacity="0.85" fill="none" stroke="#999999" stroke-miterlimit="10" x1="269.5" y1="-63" x2="269.5" y2="578"/>
	<line opacity="0.85" fill="none" stroke="#999999" stroke-miterlimit="10" x1="284.5" y1="-63" x2="284.5" y2="578"/>
	<line opacity="0.85" fill="none" stroke="#999999" stroke-miterlimit="10" x1="299.5" y1="-63" x2="299.5" y2="578"/>
	<line opacity="0.85" fill="none" stroke="#999999" stroke-miterlimit="10" x1="314.5" y1="-63" x2="314.5" y2="578"/>
	<line opacity="0.85" fill="none" stroke="#999999" stroke-miterlimit="10" x1="329.5" y1="-63" x2="329.5" y2="578"/>
	<line opacity="0.85" fill="none" stroke="#999999" stroke-miterlimit="10" x1="344.5" y1="-63" x2="344.5" y2="578"/>
	<line opacity="0.85" fill="none" stroke="#999999" stroke-miterlimit="10" x1="359.5" y1="-63" x2="359.5" y2="578"/>
	<line opacity="0.85" fill="none" stroke="#999999" stroke-miterlimit="10" x1="374.5" y1="-63" x2="374.5" y2="578"/>
	<line opacity="0.85" fill="none" stroke="#999999" stroke-miterlimit="10" x1="389.5" y1="-63" x2="389.5" y2="578"/>
	<line opacity="0.85" fill="none" stroke="#999999" stroke-miterlimit="10" x1="404.5" y1="-63" x2="404.5" y2="578"/>
	<line opacity="0.85" fill="none" stroke="#999999" stroke-miterlimit="10" x1="419.5" y1="-63" x2="419.5" y2="578"/>
	<line opacity="0.85" fill="none" stroke="#999999" stroke-miterlimit="10" x1="434.5" y1="-63" x2="434.5" y2="578"/>
	<line opacity="0.85" fill="none" stroke="#999999" stroke-miterlimit="10" x1="449.5" y1="-63" x2="449.5" y2="578"/>
	<line opacity="0.85" fill="none" stroke="#999999" stroke-miterlimit="10" x1="464.5" y1="-63" x2="464.5" y2="578"/>
	<line opacity="0.85" fill="none" stroke="#999999" stroke-miterlimit="10" x1="479.5" y1="-63" x2="479.5" y2="578"/>
	<line opacity="0.85" fill="none" stroke="#999999" stroke-miterlimit="10" x1="494.5" y1="-63" x2="494.5" y2="578"/>
	<line opacity="0.85" fill="none" stroke="#999999" stroke-miterlimit="10" x1="509.5" y1="-63" x2="509.5" y2="578"/>
	<line opacity="0.85" fill="none" stroke="#999999" stroke-miterlimit="10" x1="524.5" y1="-63" x2="524.5" y2="578"/>
	<line opacity="0.85" fill="none" stroke="#999999" stroke-miterlimit="10" x1="539.5" y1="-63" x2="539.5" y2="578"/>
	<line opacity="0.85" fill="none" stroke="#999999" stroke-miterlimit="10" x1="554.5" y1="-63" x2="554.5" y2="578"/>
	<line opacity="0.85" fill="none" stroke="#999999" stroke-miterlimit="10" x1="569.5" y1="-63" x2="569.5" y2="578"/>
	<line opacity="0.85" fill="none" stroke="#999999" stroke-miterlimit="10" x1="584.5" y1="-63" x2="584.5" y2="578"/>
	<line opacity="0.85" fill="none" stroke="#999999" stroke-miterlimit="10" x1="599.5" y1="-63" x2="599.5" y2="578"/>
	<line opacity="0.85" fill="none" stroke="#999999" stroke-miterlimit="10" x1="614.5" y1="-63" x2="614.5" y2="578"/>
	<line opacity="0.85" fill="none" stroke="#999999" stroke-miterlimit="10" x1="629.5" y1="-63" x2="629.5" y2="578"/>
	<line opacity="0.85" fill="none" stroke="#999999" stroke-miterlimit="10" x1="644.5" y1="-63" x2="644.5" y2="578"/>
	<line opacity="0.85" fill="none" stroke="#999999" stroke-miterlimit="10" x1="659.5" y1="-63" x2="659.5" y2="578"/>
	<line opacity="0.85" fill="none" stroke="#999999" stroke-miterlimit="10" x1="674.5" y1="-63" x2="674.5" y2="578"/>
	<line opacity="0.85" fill="none" stroke="#999999" stroke-miterlimit="10" x1="689.5" y1="-63" x2="689.5" y2="578"/>
	<line opacity="0.85" fill="none" stroke="#999999" stroke-miterlimit="10" x1="704.5" y1="-63" x2="704.5" y2="578"/>
	<line opacity="0.85" fill="none" stroke="#999999" stroke-miterlimit="10" x1="719.5" y1="-63" x2="719.5" y2="578"/>
	<line opacity="0.85" fill="none" stroke="#999999" stroke-miterlimit="10" x1="734.5" y1="-63" x2="734.5" y2="578"/>
	<line opacity="0.85" fill="none" stroke="#999999" stroke-miterlimit="10" x1="749.5" y1="-63" x2="749.5" y2="578"/>
	<line opacity="0.85" fill="none" stroke="#999999" stroke-miterlimit="10" x1="764.5" y1="-63" x2="764.5" y2="578"/>
	<line opacity="0.85" fill="none" stroke="#999999" stroke-miterlimit="10" x1="779.5" y1="-63" x2="779.5" y2="578"/>
	<line opacity="0.85" fill="none" stroke="#999999" stroke-miterlimit="10" x1="794.5" y1="-63" x2="794.5" y2="578"/>
	<line opacity="0.85" fill="none" stroke="#999999" stroke-miterlimit="10" x1="809.5" y1="-63" x2="809.5" y2="578"/>
	<line opacity="0.85" fill="none" stroke="#999999" stroke-miterlimit="10" x1="824.5" y1="-63" x2="824.5" y2="578"/>
	<line opacity="0.85" fill="none" stroke="#999999" stroke-miterlimit="10" x1="839.5" y1="-63" x2="839.5" y2="578"/>
	<line opacity="0.85" fill="none" stroke="#999999" stroke-miterlimit="10" x1="854.5" y1="-63" x2="854.5" y2="578"/>
	<line opacity="0.85" fill="none" stroke="#999999" stroke-miterlimit="10" x1="869.5" y1="-63" x2="869.5" y2="578"/>
	<line opacity="0.85" fill="none" stroke="#999999" stroke-miterlimit="10" x1="884.5" y1="-63" x2="884.5" y2="578"/>
	<line opacity="0.85" fill="none" stroke="#999999" stroke-miterlimit="10" x1="899.5" y1="-63" x2="899.5" y2="578"/>
	<line opacity="0.85" fill="none" stroke="#999999" stroke-miterlimit="10" x1="914.5" y1="-63" x2="914.5" y2="578"/>
	<line opacity="0.85" fill="none" stroke="#999999" stroke-miterlimit="10" x1="929.5" y1="-63" x2="929.5" y2="578"/>
	<line opacity="0.85" fill="none" stroke="#999999" stroke-miterlimit="10" x1="944.5" y1="-63" x2="944.5" y2="578"/>
	<line opacity="0.85" fill="none" stroke="#999999" stroke-miterlimit="10" x1="1005" y1="15.5" x2="-167" y2="15.5"/>
	<line opacity="0.85" fill="none" stroke="#999999" stroke-miterlimit="10" x1="1005" y1="30.5" x2="-167" y2="30.5"/>
	<line opacity="0.85" fill="none" stroke="#999999" stroke-miterlimit="10" x1="1005" y1="45.5" x2="-167" y2="45.5"/>
	<line opacity="0.85" fill="none" stroke="#999999" stroke-miterlimit="10" x1="1005" y1="60.5" x2="-167" y2="60.5"/>
	<line opacity="0.85" fill="none" stroke="#999999" stroke-miterlimit="10" x1="1005" y1="75.5" x2="-167" y2="75.5"/>
	<line opacity="0.85" fill="none" stroke="#999999" stroke-miterlimit="10" x1="1005" y1="90.5" x2="-167" y2="90.5"/>
	<line opacity="0.85" fill="none" stroke="#999999" stroke-miterlimit="10" x1="1005" y1="105.5" x2="-167" y2="105.5"/>
	<line opacity="0.85" fill="none" stroke="#999999" stroke-miterlimit="10" x1="1005" y1="120.5" x2="-167" y2="120.5"/>
	<line opacity="0.85" fill="none" stroke="#999999" stroke-miterlimit="10" x1="1005" y1="135.5" x2="-167" y2="135.5"/>
	<line opacity="0.85" fill="none" stroke="#999999" stroke-miterlimit="10" x1="1005" y1="150.5" x2="-167" y2="150.5"/>
	<line opacity="0.85" fill="none" stroke="#999999" stroke-miterlimit="10" x1="1005" y1="165.5" x2="-167" y2="165.5"/>
	<line opacity="0.85" fill="none" stroke="#999999" stroke-miterlimit="10" x1="1005" y1="180.5" x2="-167" y2="180.5"/>
	<line opacity="0.85" fill="none" stroke="#999999" stroke-miterlimit="10" x1="1005" y1="195.5" x2="-167" y2="195.5"/>
	<line opacity="0.85" fill="none" stroke="#999999" stroke-miterlimit="10" x1="1005" y1="210.5" x2="-167" y2="210.5"/>
	<line opacity="0.85" fill="none" stroke="#999999" stroke-miterlimit="10" x1="1005" y1="225.5" x2="-167" y2="225.5"/>
	<line opacity="0.85" fill="none" stroke="#999999" stroke-miterlimit="10" x1="1005" y1="240.5" x2="-167" y2="240.5"/>
	<line opacity="0.85" fill="none" stroke="#999999" stroke-miterlimit="10" x1="1005" y1="255.5" x2="-167" y2="255.5"/>
	<line opacity="0.85" fill="none" stroke="#999999" stroke-miterlimit="10" x1="1005" y1="270.5" x2="-167" y2="270.5"/>
	<line opacity="0.85" fill="none" stroke="#999999" stroke-miterlimit="10" x1="1005" y1="285.5" x2="-167" y2="285.5"/>
	<line opacity="0.85" fill="none" stroke="#999999" stroke-miterlimit="10" x1="1005" y1="300.5" x2="-167" y2="300.5"/>
	<line opacity="0.85" fill="none" stroke="#999999" stroke-miterlimit="10" x1="1005" y1="315.5" x2="-167" y2="315.5"/>
	<line opacity="0.85" fill="none" stroke="#999999" stroke-miterlimit="10" x1="1005" y1="330.5" x2="-167" y2="330.5"/>
	<line opacity="0.85" fill="none" stroke="#999999" stroke-miterlimit="10" x1="1005" y1="345.5" x2="-167" y2="345.5"/>
	<line opacity="0.85" fill="none" stroke="#999999" stroke-miterlimit="10" x1="1005" y1="360.5" x2="-167" y2="360.5"/>
	<line opacity="0.85" fill="none" stroke="#999999" stroke-miterlimit="10" x1="1005" y1="375.5" x2="-167" y2="375.5"/>
	<line opacity="0.85" fill="none" stroke="#999999" stroke-miterlimit="10" x1="1005" y1="390.5" x2="-167" y2="390.5"/>
	<line opacity="0.85" fill="none" stroke="#999999" stroke-miterlimit="10" x1="1005" y1="405.5" x2="-167" y2="405.5"/>
	<line opacity="0.85" fill="none" stroke="#999999" stroke-miterlimit="10" x1="1005" y1="420.5" x2="-167" y2="420.5"/>
	<line opacity="0.85" fill="none" stroke="#999999" stroke-miterlimit="10" x1="1005" y1="435.5" x2="-167" y2="435.5"/>
	<line opacity="0.85" fill="none" stroke="#999999" stroke-miterlimit="10" x1="1005" y1="450.5" x2="-167" y2="450.5"/>
	<line opacity="0.85" fill="none" stroke="#999999" stroke-miterlimit="10" x1="1005" y1="465.5" x2="-167" y2="465.5"/>
	<line opacity="0.85" fill="none" stroke="#999999" stroke-miterlimit="10" x1="1005" y1="480.5" x2="-167" y2="480.5"/>
	<line opacity="0.85" fill="none" stroke="#999999" stroke-miterlimit="10" x1="1005" y1="495.5" x2="-167" y2="495.5"/>
	<line opacity="0.85" fill="none" stroke="#999999" stroke-miterlimit="10" x1="1005" y1="510.5" x2="-167" y2="510.5"/>
	<line opacity="0.85" fill="none" stroke="#999999" stroke-miterlimit="10" x1="1005" y1="525.5" x2="-167" y2="525.5"/>
	<line opacity="0.85" fill="none" stroke="#999999" stroke-miterlimit="10" x1="1005" y1="540.5" x2="-167" y2="540.5"/>
	<line opacity="0.85" fill="none" stroke="#999999" stroke-miterlimit="10" x1="1005" y1="555.5" x2="-167" y2="555.5"/>
</g>
</svg>
